<svg width="182" height="20" viewBox="0 0 182 20" fill="none" xmlns="http://www.w3.org/2000/svg">
<path d="M172.242 12.904C172.638 12.9058 173.029 12.8282 173.394 12.6757C173.759 12.5232 174.089 12.2989 174.365 12.0163C174.927 11.4516 175.243 10.6874 175.243 9.89081C175.243 9.09421 174.927 8.33003 174.365 7.76537C174.089 7.48415 173.759 7.26076 173.396 7.10826C173.032 6.95577 172.642 6.87723 172.248 6.87723C171.854 6.87723 171.464 6.95577 171.1 7.10826C170.737 7.26076 170.407 7.48415 170.131 7.76537C169.569 8.33003 169.253 9.09421 169.253 9.89081C169.253 10.6874 169.569 11.4516 170.131 12.0163C170.406 12.2976 170.734 12.5211 171.097 12.6735C171.46 12.826 171.849 12.9044 172.242 12.904Z" fill="#3C3541"/>
<path d="M93.2938 19.5198H94.8452V10.6791H103.121V9.10251H94.8452V1.83475H104.208V0.283951H93.2938V19.5198Z" fill="#3C3541"/>
<path d="M117.039 14.0275C117.039 16.7092 114.29 18.1532 111.7 18.1532C109.109 18.1532 106.357 16.7165 106.357 14.0533V0.287628H104.78V14.0275C104.78 17.7332 108.347 19.7297 111.7 19.7297C115.053 19.7297 118.616 17.7406 118.616 14.0533V0.287628H117.039V14.0275Z" fill="#3C3541"/>
<path d="M119.689 1.83475H125.949V19.6008H127.501V1.83475H133.761V0.258163H119.689V1.83475Z" fill="#3C3541"/>
<path d="M146.489 14.0275C146.489 16.7092 143.736 18.1532 141.146 18.1532C138.555 18.1532 135.806 16.7165 135.806 14.0533V0.287628H134.229V14.0275C134.229 17.7332 137.792 19.7297 141.146 19.7297C144.499 19.7297 148.066 17.7406 148.066 14.0533V0.287628H146.489V14.0275Z" fill="#3C3541"/>
<path d="M156.224 12.0089C157.015 12.0495 157.805 11.9258 158.546 11.6456C159.286 11.3654 159.96 10.9347 160.526 10.3809C161.091 9.82706 161.536 9.16203 161.831 8.4278C162.126 7.69356 162.266 6.90609 162.242 6.11509C162.242 3.19767 160.174 0.247101 156.228 0.247101H149.385V12.9445H150.936V1.82H156.224C159.29 1.82 160.687 4.05227 160.687 6.12614C160.687 8.20002 159.29 10.4323 156.224 10.4323H152.127V11.6589L160.816 19.5087H163.144L154.813 12.0089H156.224Z" fill="#3C3541"/>
<path d="M179.118 2.91774C178.213 1.99408 177.133 1.26027 175.94 0.759308C174.748 0.258347 173.468 0.000305176 172.174 0.000305176C170.881 0.000305176 169.6 0.258347 168.408 0.759308C167.216 1.26027 166.135 1.99408 165.23 2.91774C163.384 4.76898 162.347 7.27657 162.347 9.89082C162.347 12.5051 163.384 15.0127 165.23 16.8639C166.136 17.7872 167.217 18.5207 168.409 19.0214C169.602 19.5221 170.882 19.7801 172.176 19.7801C173.47 19.7801 174.75 19.5221 175.943 19.0214C177.136 18.5207 178.216 17.7872 179.122 16.8639C180.97 15.0125 182.007 12.5041 182.007 9.88898C182.007 7.27382 180.97 4.76544 179.122 2.91406L179.118 2.91774ZM172.161 18.2047C171.076 18.2043 170.002 17.9859 169.002 17.5626C168.003 17.1393 167.098 16.5196 166.343 15.7404C164.793 14.1879 163.922 12.0842 163.922 9.89082C163.922 7.69747 164.793 5.59371 166.343 4.04124C167.101 3.26139 168.007 2.64144 169.009 2.21809C170.01 1.79475 171.087 1.57662 172.174 1.57662C173.262 1.57662 174.338 1.79475 175.34 2.21809C176.341 2.64144 177.248 3.26139 178.006 4.04124C179.54 5.60168 180.4 7.70245 180.4 9.89082C180.4 12.0792 179.54 14.18 178.006 15.7404C177.246 16.5214 176.337 17.142 175.334 17.5653C174.33 17.9886 173.251 18.2061 172.161 18.2047Z" fill="#3C3541"/>
<path d="M1.55134 3.34135L8.03304 12.9777H8.98743L15.4691 3.34135V19.5198H17.0205V0.258163H15.716L8.49734 10.8964L1.30445 0.258163H0V12.9593H1.55134V3.34135Z" fill="#3C3541"/>
<path d="M25.2857 19.7445C28.6389 19.7445 32.2022 17.7553 32.2022 14.068V0.287628H30.6288V14.0275C30.6288 16.7092 27.8762 18.1532 25.2857 18.1532C22.6952 18.1532 19.9426 16.7165 19.9426 14.0533V0.287628H18.3655V14.0275C18.3655 17.7332 21.9324 19.7445 25.2857 19.7445Z" fill="#3C3541"/>
<path d="M35.0985 3.52922L46.1642 19.5198H47.4613V0.258166H45.9136V16.3555L34.7853 0.280267L33.5214 0.191864V19.5198H35.0985V3.52922Z" fill="#3C3541"/>
<path d="M76.4576 19.7813C77.7537 19.785 79.0375 19.5291 80.233 19.0287C81.4285 18.5282 82.5116 17.7934 83.4184 16.8676C85.2642 15.0152 86.3006 12.5072 86.3006 9.89266C86.3006 7.2781 85.2642 4.77008 83.4184 2.91774C82.513 1.99397 81.4322 1.26008 80.2395 0.759071C79.0468 0.258063 77.7661 0 76.4724 0C75.1786 0 73.8979 0.258063 72.7052 0.759071C71.5125 1.26008 70.4318 1.99397 69.5264 2.91774C67.6817 4.76993 66.646 7.27716 66.646 9.89082C66.646 12.5045 67.6817 15.0117 69.5264 16.8639C70.4296 17.7865 71.5078 18.5197 72.698 19.0207C73.8881 19.5216 75.1663 19.7802 76.4576 19.7813ZM76.4576 1.5769C77.5476 1.57652 78.6266 1.79438 79.631 2.21763C80.6354 2.64088 81.5448 3.26095 82.3055 4.04124C83.8386 5.6026 84.6975 7.70302 84.6975 9.89082C84.6975 12.0786 83.8386 14.179 82.3055 15.7404C81.5476 16.5204 80.6408 17.1404 79.6388 17.5638C78.6369 17.9872 77.5602 18.2053 76.4724 18.2053C75.3846 18.2053 74.3079 17.9872 73.3059 17.5638C72.304 17.1404 71.3972 16.5204 70.6392 15.7404C69.0893 14.1879 68.2188 12.0842 68.2188 9.89082C68.2188 7.69747 69.0893 5.59371 70.6392 4.04124C71.3946 3.26199 72.2989 2.64233 73.2983 2.21901C74.2978 1.7957 75.3722 1.57734 76.4576 1.5769Z" fill="#3C3541"/>
<path d="M63.2841 3.3082C61.5522 1.3301 59.0907 0.287628 56.1686 0.287628H49.4843V1.83475H56.1686C61.6186 1.83475 64.1022 6.01934 64.1022 9.90555C64.1022 13.7918 61.6186 17.9727 56.1686 17.9727H49.4843V19.5235H56.1686C59.0907 19.5235 61.5522 18.4773 63.2841 16.4992C64.8161 14.6424 65.654 12.3106 65.654 9.9037C65.654 7.49684 64.8161 5.16499 63.2841 3.3082Z" fill="#3C3541"/>
<path d="M51.0319 1.83475H49.4806V12.9593H51.0319V1.83475Z" fill="#3C3541"/>
</svg>
