<svg width="101" height="124" viewBox="0 0 101 124" fill="none" xmlns="http://www.w3.org/2000/svg">
<path d="M61.4465 18.1786C61.3488 18.1786 61.255 18.2174 61.1859 18.2865C61.1168 18.3556 61.078 18.4493 61.078 18.547V20.864L54.5521 23.3578C53.7672 14.635 52.3043 -0.00369263 50.2187 -0.00369263C48.133 -0.00369263 46.6701 14.635 45.8853 23.3578L39.3593 20.864V18.547C39.3593 18.4493 39.3205 18.3556 39.2514 18.2865C39.1823 18.2174 39.0886 18.1786 38.9908 18.1786C38.8931 18.1786 38.7994 18.2174 38.7303 18.2865C38.6612 18.3556 38.6224 18.4493 38.6224 18.547V21.7038C38.622 21.7674 38.6381 21.83 38.6691 21.8855C38.7001 21.941 38.7449 21.9876 38.7992 22.0206L44.7208 29.6199L45.432 29.1005C45.2994 30.9423 45.233 32.0732 45.233 32.0732L48.4426 29.5794L49.9865 30.0104V21.7075H50.4729V30.0141L52.0169 29.5831L55.2264 32.0769C55.2264 32.0769 55.1601 30.935 55.0274 29.1042L55.7386 29.6236L61.6381 22.0243C61.6924 21.9913 61.7373 21.9447 61.7683 21.8892C61.7993 21.8337 61.8154 21.7711 61.815 21.7075V18.5507C61.8155 18.502 61.8063 18.4537 61.788 18.4086C61.7697 18.3635 61.7426 18.3224 61.7084 18.2878C61.6741 18.2532 61.6333 18.2257 61.5884 18.207C61.5434 18.1883 61.4952 18.1786 61.4465 18.1786ZM50.215 14.5466C49.2569 14.5466 48.4794 13.3457 48.4794 11.8612C48.4794 10.3767 49.2569 9.17587 50.215 9.17587C51.1731 9.17587 51.9506 10.3767 51.9506 11.8612C51.9506 13.3457 51.1731 14.5466 50.215 14.5466Z" fill="url(#paint0_linear_1365_2)"/>
<path d="M87.9924 74.1327C87.7331 73.0655 87.2447 72.0673 86.5612 71.2075C85.8777 70.3476 85.0154 69.6466 84.034 69.1529C83.0526 68.6592 81.9756 68.3847 80.8775 68.3484C79.7795 68.312 78.6866 68.5148 77.6747 68.9425C77.3027 66.5084 76.0515 64.2949 74.1577 62.7204C72.2638 61.1459 69.8586 60.3196 67.3967 60.3976C64.9347 60.4757 62.5866 61.4526 60.7964 63.1438C59.0061 64.835 57.8976 67.1233 57.6806 69.5761C56.4813 68.8718 55.1332 68.4592 53.7451 68.3715L53.9736 90.4732H54.0104C55.0531 88.2875 56.8485 86.5504 59.0677 85.5798C61.287 84.6092 63.7817 84.4702 66.0952 85.1881C68.4086 85.9061 70.386 87.433 71.6652 89.4893C72.9445 91.5456 73.4401 93.9937 73.0613 96.3854C73.4206 96.3399 73.7824 96.3165 74.1446 96.3154C76.3484 96.3158 78.4675 97.1639 80.0625 98.684L90.7487 92.5139V73.186C89.1937 72.8103 87.9924 74.1327 87.9924 74.1327ZM59.9247 80.5127C59.8595 80.5147 59.7946 80.5047 59.7331 80.4833C59.6889 80.4671 59.6506 80.4382 59.623 80.4001C59.5954 80.362 59.5798 80.3166 59.5783 80.2696C59.5783 80.0265 59.9984 79.8534 60.1752 79.8534C60.2417 79.8499 60.3081 79.86 60.3705 79.8828C60.414 79.8985 60.4517 79.9269 60.4787 79.9644C60.5056 80.0019 60.5206 80.0466 60.5216 80.0928C60.5327 80.3322 60.1052 80.509 59.9247 80.509V80.5127ZM71.8858 72.9871C71.5542 72.9871 71.5173 72.7882 71.5173 72.7293C71.5173 72.4898 71.8858 72.2835 72.1106 72.2835C72.4422 72.2835 72.4791 72.4788 72.4791 72.5414C72.4791 72.7735 72.1069 72.9834 71.8858 72.9834V72.9871ZM75.7291 81.6768C75.6231 81.7593 75.4947 81.808 75.3606 81.8167C75.28 81.8214 75.1996 81.8036 75.1285 81.7652C75.0874 81.7437 75.0531 81.7114 75.029 81.6718C75.005 81.6322 74.9922 81.5868 74.9921 81.5404C74.9921 81.2973 75.3312 81.0616 75.5854 81.0616C75.9318 81.0616 75.9539 81.2937 75.9539 81.3379C75.9444 81.4071 75.9192 81.4733 75.8802 81.5314C75.8413 81.5895 75.7896 81.6379 75.7291 81.6731V81.6768ZM82.5867 80.8774C82.2182 80.8774 82.2182 80.6453 82.2182 80.5974C82.2254 80.5292 82.2476 80.4635 82.2833 80.4049C82.319 80.3463 82.3672 80.2963 82.4246 80.2586C82.5296 80.1737 82.6583 80.1235 82.793 80.1149C83.1615 80.1149 83.1615 80.347 83.1615 80.3949C83.1763 80.6343 82.841 80.8737 82.5867 80.8737V80.8774ZM85.1366 92.665C85.0254 92.7341 84.8988 92.7746 84.7681 92.7828C84.4402 92.7828 84.3997 92.5876 84.3997 92.5287C84.3997 92.2929 84.7939 92.094 84.9966 92.094C85.3246 92.094 85.3651 92.2856 85.3651 92.3445C85.3762 92.4661 85.2951 92.5729 85.1366 92.6687V92.665Z" fill="url(#paint1_linear_1365_2)"/>
<path d="M45.4799 72.7955C44.1126 71.9865 42.553 71.5597 40.9641 71.5597C39.3753 71.5597 37.8156 71.9865 36.4483 72.7955C36.4483 72.7108 36.4483 72.6261 36.4483 72.5414C36.4228 70.3711 35.6025 68.2854 34.1426 66.6789C32.6827 65.0724 30.6845 64.0564 28.5258 63.8232C26.3672 63.59 24.198 64.1557 22.4284 65.4133C20.6589 66.671 19.4118 68.5333 18.923 70.648C17.4501 69.7996 15.7349 69.4702 14.0524 69.7127C12.3699 69.9552 10.8177 70.7554 9.64447 71.9852V88.4988C10.7285 89.1329 11.6368 90.0278 12.2868 91.1022C12.9368 92.1765 13.3078 93.3962 13.3662 94.6504L24.4208 101.023C24.4208 100.938 24.4208 100.854 24.4208 100.765C24.4212 100.077 24.6158 99.4026 24.9823 98.8199C25.3488 98.2372 25.8724 97.7697 26.4928 97.4711C27.1132 97.1725 27.8054 97.055 28.4896 97.1321C29.1738 97.2091 29.8225 97.4777 30.3609 97.9067C30.5719 97.1273 30.9377 96.3983 31.4365 95.7632C31.9352 95.128 32.5567 94.5996 33.2639 94.2095C33.9711 93.8195 34.7497 93.5756 35.5531 93.4925C36.3566 93.4094 37.1685 93.4888 37.9407 93.7258C38.48 92.0012 39.6823 90.5613 41.2834 89.7227C42.8844 88.8841 44.7531 88.7155 46.4785 89.2539L46.6665 71.2042C46.2125 71.6885 45.8144 72.2223 45.4799 72.7955ZM14.9544 78.6599C14.877 78.6628 14.8001 78.6477 14.7296 78.6157C14.6888 78.5939 14.6546 78.5615 14.6307 78.522C14.6067 78.4824 14.5937 78.4372 14.5933 78.391C14.5933 78.1589 14.936 77.9231 15.1828 77.9231C15.5292 77.9231 15.5513 78.1478 15.5513 78.192C15.544 78.4241 15.2086 78.6599 14.9544 78.6599ZM23.7539 92.7828C23.4296 92.7828 23.4038 92.5913 23.4038 92.5324C23.4038 92.4734 23.4849 92.3113 23.6433 92.2156C23.7549 92.1479 23.8815 92.1086 24.0118 92.1014C24.3398 92.1014 24.3803 92.2929 24.3803 92.3518C24.3508 92.5876 23.9566 92.7828 23.7539 92.7828ZM24.7893 83.7432C24.7352 83.7499 24.6803 83.7455 24.6279 83.7304C24.5755 83.7154 24.5266 83.6899 24.4843 83.6555C24.442 83.6211 24.4071 83.5785 24.3816 83.5303C24.3561 83.4821 24.3406 83.4292 24.3361 83.3749C24.3442 83.2835 24.3765 83.1959 24.4297 83.1212C24.483 83.0465 24.5552 82.9873 24.6389 82.9498C24.7226 82.9123 24.8148 82.8977 24.9061 82.9077C24.9973 82.9177 25.0842 82.9518 25.1578 83.0065C25.1987 83.0415 25.2315 83.085 25.2538 83.134C25.2761 83.1831 25.2873 83.2363 25.2868 83.2902C25.284 83.3526 25.2688 83.4138 25.2423 83.4704C25.2157 83.527 25.1783 83.5778 25.1321 83.6199C25.0859 83.6619 25.0318 83.6945 24.973 83.7157C24.9142 83.7368 24.8518 83.7462 24.7893 83.7432ZM25.331 69.2372C24.981 69.2372 24.9625 69.0051 24.9625 68.9609C24.9704 68.8919 24.9932 68.8255 25.0295 68.7663C25.0658 68.7072 25.1147 68.6566 25.1726 68.6183C25.2786 68.5358 25.407 68.4871 25.5411 68.4784C25.9095 68.4784 25.9095 68.7104 25.9095 68.7546C25.928 69.0014 25.589 69.2372 25.3384 69.2372H25.331ZM31.389 74.6079C31.2779 74.6123 31.1686 74.5785 31.0794 74.5121C31.037 74.4807 31.0028 74.4395 30.9797 74.3921C30.9566 74.3446 30.9453 74.2923 30.9468 74.2395C30.9553 74.115 31.0128 73.999 31.1067 73.9168C31.2007 73.8347 31.3234 73.7931 31.4479 73.8012C31.5586 73.7954 31.6679 73.828 31.7574 73.8933C31.7976 73.9267 31.8303 73.9683 31.8531 74.0153C31.876 74.0623 31.8886 74.1136 31.8901 74.1659C31.8816 74.2893 31.8252 74.4045 31.733 74.4871C31.6408 74.5696 31.52 74.613 31.3963 74.6079H31.389ZM40.7338 81.4631C40.4059 81.4631 40.3653 81.2715 40.3653 81.2126C40.3653 80.9769 40.7596 80.7779 40.9623 80.7779C41.0318 80.7745 41.1011 80.7871 41.165 80.8148C41.208 80.8317 41.2451 80.861 41.2713 80.8991C41.2976 80.9371 41.3119 80.9822 41.3123 81.0284C41.3345 81.2679 40.9402 81.4631 40.7412 81.4631H40.7338Z" fill="url(#paint2_linear_1365_2)"/>
<path d="M94.4631 40.8549C93.8997 40.8549 93.349 41.0219 92.8806 41.3348C92.4122 41.6477 92.0471 42.0924 91.8315 42.6127C91.6159 43.133 91.5595 43.7055 91.6694 44.2579C91.7793 44.8102 92.0506 45.3176 92.4489 45.7158C92.8473 46.114 93.3548 46.3852 93.9074 46.4951C94.4599 46.605 95.0326 46.5486 95.5531 46.3331C96.0736 46.1175 96.5185 45.7526 96.8314 45.2843C97.1444 44.8161 97.3115 44.2656 97.3115 43.7024C97.3105 42.9475 97.0101 42.2238 96.4761 41.69C95.9422 41.1562 95.2182 40.8559 94.4631 40.8549Z" fill="#110090"/>
<path d="M5.96695 92.1456C5.40359 92.1456 4.85286 92.3126 4.38445 92.6254C3.91603 92.9383 3.55094 93.383 3.33535 93.9033C3.11976 94.4236 3.06336 94.9962 3.17326 95.5485C3.28317 96.1009 3.55446 96.6082 3.95281 97.0064C4.35117 97.4047 4.85871 97.6758 5.41125 97.7857C5.96379 97.8956 6.53651 97.8392 7.05699 97.6237C7.57747 97.4082 8.02233 97.0432 8.33531 96.575C8.6483 96.1067 8.81536 95.5562 8.81536 94.993C8.81438 94.2381 8.51398 93.5144 7.98001 92.9806C7.44604 92.4469 6.7221 92.1465 5.96695 92.1456Z" fill="#110090"/>
<path d="M94.4631 37.746C93.4372 37.7458 92.4289 38.0124 91.5373 38.5195L63.3221 22.2343C63.2279 22.5779 63.0389 22.888 62.7768 23.1294L60.3042 26.301L88.6078 42.6378C88.3523 44.0057 88.5867 45.4199 89.2699 46.6323C89.9531 47.8447 91.0415 48.7779 92.3443 49.2683V93.4201L56.693 113.993C56.2843 114.228 55.8212 114.352 55.3496 114.353C54.8781 114.354 54.4145 114.232 54.0048 113.999C53.5951 113.765 53.2536 113.429 53.0141 113.023C52.7747 112.616 52.6456 112.155 52.6397 111.683L51.4937 30.644L50.2224 31.086L48.9511 30.644L47.8051 111.683C47.7992 112.155 47.6701 112.616 47.4306 113.023C47.1912 113.429 46.8497 113.765 46.44 113.999C46.0303 114.232 45.5667 114.354 45.0951 114.353C44.6236 114.352 44.1605 114.228 43.7517 113.993L11.8922 95.6155C11.9107 95.4129 11.9217 95.203 11.9217 94.993C11.9213 93.787 11.5542 92.6096 10.8692 91.6169C10.1841 90.6242 9.21341 89.8631 8.08576 89.4344V44.7927L40.1258 26.301L37.6532 23.1294C37.3911 22.888 37.2022 22.5779 37.1079 22.2343L4.31244 41.1607C4.20992 41.2218 4.11146 41.2895 4.01765 41.3633L3.04852 41.9195V89.8065C2.34647 90.1989 1.73122 90.7295 1.23991 91.3661C0.748599 92.0028 0.391408 92.7324 0.189896 93.5108C-0.0116161 94.2892 -0.0532756 95.1004 0.0674337 95.8954C0.188143 96.6904 0.468716 97.4527 0.892225 98.1363C1.31573 98.8199 1.8734 99.4106 2.53156 99.8729C3.18973 100.335 3.93476 100.659 4.72169 100.826C5.50862 100.992 6.32113 100.998 7.1102 100.842C7.89928 100.686 8.64856 100.371 9.31282 99.918L48.9732 122.808H48.9916L49.0911 122.86L50.2298 123.515L51.3684 122.86L51.4679 122.808H51.4863L96.1323 97.0411L96.2613 96.9564L97.3926 96.3044V48.8926C98.5396 48.2469 99.4405 47.2397 99.9546 46.0282C100.469 44.8167 100.567 43.4692 100.234 42.196C99.901 40.9228 99.1557 39.7957 98.1143 38.9906C97.073 38.1855 95.7942 37.7479 94.4778 37.746H94.4631ZM5.96696 98.7834C5.21702 98.7834 4.48392 98.5611 3.86037 98.1446C3.23682 97.7281 2.75082 97.1362 2.46383 96.4435C2.17684 95.7509 2.10176 94.9888 2.24807 94.2535C2.39437 93.5183 2.75549 92.8429 3.28578 92.3128C3.81606 91.7827 4.49169 91.4217 5.22721 91.2754C5.96274 91.1291 6.72514 91.2042 7.41799 91.4911C8.11084 91.778 8.70303 92.2638 9.11967 92.8872C9.53631 93.5105 9.75869 94.2433 9.75869 94.993C9.75771 95.998 9.35792 96.9615 8.64704 97.6722C7.93616 98.3828 6.97229 98.7825 5.96696 98.7834ZM94.4631 47.4928C93.7131 47.4928 92.98 47.2705 92.3565 46.854C91.7329 46.4375 91.2469 45.8455 90.96 45.1529C90.673 44.4603 90.5979 43.6982 90.7442 42.9629C90.8905 42.2276 91.2516 41.5522 91.7819 41.0221C92.3122 40.492 92.9878 40.131 93.7233 39.9848C94.4589 39.8385 95.2213 39.9136 95.9141 40.2005C96.607 40.4874 97.1991 40.9732 97.6158 41.5965C98.0324 42.2199 98.2548 42.9527 98.2548 43.7024C98.2529 44.7071 97.8528 45.6701 97.1421 46.3805C96.4314 47.0909 95.4681 47.4909 94.4631 47.4928Z" fill="#110090"/>
<defs>
<linearGradient id="paint0_linear_1365_2" x1="50.215" y1="32.0769" x2="50.215" y2="-1.02451e-05" gradientUnits="userSpaceOnUse">
<stop stop-color="#FBDC6D"/>
<stop offset="1" stop-color="#EEBB43"/>
</linearGradient>
<linearGradient id="paint1_linear_1365_2" x1="72.2653" y1="60.146" x2="72.2653" y2="119.688" gradientUnits="userSpaceOnUse">
<stop stop-color="#EEBB43"/>
<stop offset="1" stop-color="#FBDC6D"/>
</linearGradient>
<linearGradient id="paint2_linear_1365_2" x1="28.1499" y1="60.9454" x2="28.1499" y2="122.867" gradientUnits="userSpaceOnUse">
<stop stop-color="#EEBB43"/>
<stop offset="1" stop-color="#F6C745"/>
</linearGradient>
</defs>
</svg>
