<svg width="230" height="35" viewBox="0 0 230 35" fill="none" xmlns="http://www.w3.org/2000/svg">
<path d="M172.242 20.904C172.638 20.9058 173.029 20.8282 173.394 20.6757C173.759 20.5232 174.089 20.2989 174.365 20.0163C174.927 19.4516 175.243 18.6874 175.243 17.8908C175.243 17.0942 174.927 16.33 174.365 15.7654C174.089 15.4841 173.759 15.2608 173.396 15.1083C173.032 14.9558 172.642 14.8772 172.248 14.8772C171.854 14.8772 171.464 14.9558 171.1 15.1083C170.737 15.2608 170.407 15.4841 170.131 15.7654C169.569 16.33 169.253 17.0942 169.253 17.8908C169.253 18.6874 169.569 19.4516 170.131 20.0163C170.406 20.2976 170.734 20.5211 171.097 20.6735C171.46 20.826 171.849 20.9044 172.242 20.904Z" fill="#3C3541"/>
<path d="M93.2938 27.5198H94.8452V18.6791H103.121V17.1025H94.8452V9.83475H104.208V8.28395H93.2938V27.5198Z" fill="#3C3541"/>
<path d="M117.039 22.0275C117.039 24.7092 114.29 26.1532 111.7 26.1532C109.109 26.1532 106.357 24.7165 106.357 22.0533V8.28763H104.78V22.0275C104.78 25.7332 108.347 27.7297 111.7 27.7297C115.053 27.7297 118.616 25.7406 118.616 22.0533V8.28763H117.039V22.0275Z" fill="#3C3541"/>
<path d="M119.689 9.83475H125.949V27.6008H127.501V9.83475H133.761V8.25816H119.689V9.83475Z" fill="#3C3541"/>
<path d="M146.489 22.0275C146.489 24.7092 143.736 26.1532 141.146 26.1532C138.555 26.1532 135.806 24.7165 135.806 22.0533V8.28763H134.229V22.0275C134.229 25.7332 137.792 27.7297 141.146 27.7297C144.499 27.7297 148.066 25.7406 148.066 22.0533V8.28763H146.489V22.0275Z" fill="#3C3541"/>
<path d="M156.224 20.0089C157.015 20.0495 157.805 19.9258 158.546 19.6456C159.286 19.3654 159.96 18.9347 160.526 18.3809C161.091 17.8271 161.536 17.162 161.831 16.4278C162.126 15.6936 162.266 14.9061 162.242 14.1151C162.242 11.1977 160.174 8.2471 156.228 8.2471H149.385V20.9445H150.936V9.82H156.224C159.29 9.82 160.687 12.0523 160.687 14.1261C160.687 16.2 159.29 18.4323 156.224 18.4323H152.127V19.6589L160.816 27.5087H163.144L154.813 20.0089H156.224Z" fill="#3C3541"/>
<path d="M179.118 10.9177C178.213 9.99408 177.133 9.26027 175.94 8.75931C174.748 8.25835 173.468 8.00031 172.174 8.00031C170.881 8.00031 169.6 8.25835 168.408 8.75931C167.216 9.26027 166.135 9.99408 165.23 10.9177C163.384 12.769 162.347 15.2766 162.347 17.8908C162.347 20.5051 163.384 23.0127 165.23 24.8639C166.136 25.7872 167.217 26.5207 168.409 27.0214C169.602 27.5221 170.882 27.7801 172.176 27.7801C173.47 27.7801 174.75 27.5221 175.943 27.0214C177.136 26.5207 178.216 25.7872 179.122 24.8639C180.97 23.0125 182.007 20.5041 182.007 17.889C182.007 15.2738 180.97 12.7654 179.122 10.9141L179.118 10.9177ZM172.161 26.2047C171.076 26.2043 170.002 25.9859 169.002 25.5626C168.003 25.1393 167.098 24.5196 166.343 23.7404C164.793 22.1879 163.922 20.0842 163.922 17.8908C163.922 15.6975 164.793 13.5937 166.343 12.0412C167.101 11.2614 168.007 10.6414 169.009 10.2181C170.01 9.79475 171.087 9.57662 172.174 9.57662C173.262 9.57662 174.338 9.79475 175.34 10.2181C176.341 10.6414 177.248 11.2614 178.006 12.0412C179.54 13.6017 180.4 15.7024 180.4 17.8908C180.4 20.0792 179.54 22.18 178.006 23.7404C177.246 24.5214 176.337 25.142 175.334 25.5653C174.33 25.9886 173.251 26.2061 172.161 26.2047Z" fill="#3C3541"/>
<path d="M1.55134 11.3413L8.03304 20.9777H8.98743L15.4691 11.3413V27.5198H17.0205V8.25816H15.716L8.49734 18.8964L1.30445 8.25816H0V20.9593H1.55134V11.3413Z" fill="#3C3541"/>
<path d="M25.2857 27.7445C28.6389 27.7445 32.2022 25.7553 32.2022 22.068V8.28763H30.6288V22.0275C30.6288 24.7092 27.8762 26.1532 25.2857 26.1532C22.6952 26.1532 19.9426 24.7165 19.9426 22.0533V8.28763H18.3655V22.0275C18.3655 25.7332 21.9324 27.7445 25.2857 27.7445Z" fill="#3C3541"/>
<path d="M35.0985 11.5292L46.1642 27.5198H47.4613V8.25817H45.9136V24.3555L34.7853 8.28027L33.5214 8.19186V27.5198H35.0985V11.5292Z" fill="#3C3541"/>
<path d="M76.4576 27.7813C77.7537 27.785 79.0375 27.5291 80.233 27.0287C81.4285 26.5282 82.5116 25.7934 83.4184 24.8676C85.2642 23.0152 86.3006 20.5072 86.3006 17.8927C86.3006 15.2781 85.2642 12.7701 83.4184 10.9177C82.513 9.99397 81.4322 9.26008 80.2395 8.75907C79.0468 8.25806 77.7661 8 76.4724 8C75.1786 8 73.8979 8.25806 72.7052 8.75907C71.5125 9.26008 70.4318 9.99397 69.5264 10.9177C67.6817 12.7699 66.646 15.2772 66.646 17.8908C66.646 20.5045 67.6817 23.0117 69.5264 24.8639C70.4296 25.7865 71.5078 26.5197 72.698 27.0207C73.8881 27.5216 75.1663 27.7802 76.4576 27.7813ZM76.4576 9.5769C77.5476 9.57652 78.6266 9.79438 79.631 10.2176C80.6354 10.6409 81.5448 11.2609 82.3055 12.0412C83.8386 13.6026 84.6975 15.703 84.6975 17.8908C84.6975 20.0786 83.8386 22.179 82.3055 23.7404C81.5476 24.5204 80.6408 25.1404 79.6388 25.5638C78.6369 25.9872 77.5602 26.2053 76.4724 26.2053C75.3846 26.2053 74.3079 25.9872 73.3059 25.5638C72.304 25.1404 71.3972 24.5204 70.6392 23.7404C69.0893 22.1879 68.2188 20.0842 68.2188 17.8908C68.2188 15.6975 69.0893 13.5937 70.6392 12.0412C71.3946 11.262 72.2989 10.6423 73.2983 10.219C74.2978 9.7957 75.3722 9.57734 76.4576 9.5769Z" fill="#3C3541"/>
<path d="M63.2841 11.3082C61.5522 9.3301 59.0907 8.28763 56.1686 8.28763H49.4843V9.83475H56.1686C61.6186 9.83475 64.1022 14.0193 64.1022 17.9055C64.1022 21.7918 61.6186 25.9727 56.1686 25.9727H49.4843V27.5235H56.1686C59.0907 27.5235 61.5522 26.4773 63.2841 24.4992C64.8161 22.6424 65.654 20.3106 65.654 17.9037C65.654 15.4968 64.8161 13.165 63.2841 11.3082Z" fill="#3C3541"/>
<path d="M51.0319 9.83475H49.4806V20.9593H51.0319V9.83475Z" fill="#3C3541"/>
<path d="M202.798 34.4413C202.798 34.292 202.739 34.1487 202.635 34.0428C202.53 33.9369 202.388 33.877 202.24 33.8761L198.774 33.8761L195.039 24.0385C208.097 22.8551 230 20.647 230 17.5033C230 14.3597 208.097 12.1515 195.039 10.9681L198.774 1.13053L202.24 1.13053C202.389 1.13053 202.532 1.07097 202.637 0.964966C202.742 0.858958 202.801 0.715187 202.801 0.56527C202.801 0.415353 202.742 0.271571 202.637 0.165564C202.532 0.0595566 202.389 0 202.24 0L197.515 0C197.419 0.000534234 197.326 0.0253699 197.243 0.0721896C197.16 0.119009 197.09 0.186288 197.039 0.267755L185.67 9.19295L186.447 10.264C183.709 10.0656 182 9.96317 182 9.96317L185.732 14.8026L185.076 17.1331H197.505V17.8669H185.076L185.732 20.1974L182 25.0368C182 25.0368 183.709 24.9344 186.447 24.736L185.67 25.807L197.039 34.7322C197.09 34.8137 197.16 34.881 197.243 34.9278C197.326 34.9746 197.419 34.9995 197.515 35L202.24 35C202.387 34.9991 202.528 34.9401 202.632 34.8356C202.737 34.7311 202.796 34.5895 202.798 34.4413ZM208.232 17.5033C208.232 16.0588 210.032 14.8852 212.252 14.8852C214.472 14.8852 216.273 16.0588 216.273 17.5033C216.273 18.9479 214.472 20.1214 212.252 20.1214C210.032 20.1214 208.232 18.9479 208.232 17.5033Z" fill="url(#paint0_linear_1365_4)"/>
<defs>
<linearGradient id="paint0_linear_1365_4" x1="206.002" y1="0" x2="206.002" y2="35.0066" gradientUnits="userSpaceOnUse">
<stop stop-color="#FBDC6D"/>
<stop offset="1" stop-color="#EEBB43"/>
</linearGradient>
</defs>
</svg>
