<svg width="182" height="146" viewBox="0 0 182 146" fill="none" xmlns="http://www.w3.org/2000/svg">
<path d="M102.233 18.1786C102.136 18.1786 102.042 18.2174 101.973 18.2865C101.904 18.3556 101.865 18.4493 101.865 18.547V20.864L95.3389 23.3578C94.554 14.635 93.0912 -0.00369263 91.0055 -0.00369263C88.9199 -0.00369263 87.457 14.635 86.6721 23.3578L80.1462 20.864V18.547C80.1462 18.4493 80.1073 18.3556 80.0382 18.2865C79.9691 18.2174 79.8754 18.1786 79.7777 18.1786C79.6799 18.1786 79.5862 18.2174 79.5171 18.2865C79.448 18.3556 79.4092 18.4493 79.4092 18.547V21.7038C79.4088 21.7674 79.4249 21.83 79.4559 21.8855C79.4869 21.941 79.5317 21.9876 79.5861 22.0206L85.5077 29.6199L86.2188 29.1005C86.0862 30.9423 86.0199 32.0732 86.0199 32.0732L89.2294 29.5794L90.7734 30.0104V21.7075H91.2598V30.0141L92.8037 29.5831L96.0133 32.0769C96.0133 32.0769 95.9469 30.935 95.8143 29.1042L96.5255 29.6236L102.425 22.0243C102.479 21.9913 102.524 21.9447 102.555 21.8892C102.586 21.8337 102.602 21.7711 102.602 21.7075V18.5507C102.602 18.502 102.593 18.4537 102.575 18.4086C102.557 18.3635 102.529 18.3224 102.495 18.2878C102.461 18.2532 102.42 18.2257 102.375 18.207C102.33 18.1883 102.282 18.1786 102.233 18.1786ZM91.0018 14.5466C90.0438 14.5466 89.2662 13.3457 89.2662 11.8612C89.2662 10.3767 90.0438 9.17587 91.0018 9.17587C91.9599 9.17587 92.7374 10.3767 92.7374 11.8612C92.7374 13.3457 91.9599 14.5466 91.0018 14.5466Z" fill="url(#paint0_linear_1365_3)"/>
<path d="M128.779 74.1327C128.52 73.0655 128.032 72.0673 127.348 71.2075C126.665 70.3476 125.802 69.6466 124.821 69.1529C123.839 68.6592 122.762 68.3847 121.664 68.3484C120.566 68.312 119.473 68.5148 118.462 68.9425C118.09 66.5084 116.838 64.2949 114.945 62.7204C113.051 61.1459 110.645 60.3196 108.183 60.3976C105.722 60.4757 103.373 61.4526 101.583 63.1438C99.7929 64.835 98.6845 67.1233 98.4674 69.5761C97.2682 68.8718 95.9201 68.4592 94.532 68.3715L94.7604 90.4732H94.7973C95.84 88.2875 97.6353 86.5504 99.8546 85.5798C102.074 84.6092 104.569 84.4702 106.882 85.1881C109.195 85.9061 111.173 87.433 112.452 89.4893C113.731 91.5456 114.227 93.9937 113.848 96.3854C114.207 96.3399 114.569 96.3165 114.931 96.3154C117.135 96.3158 119.254 97.1639 120.849 98.684L131.536 92.5139V73.186C129.981 72.8103 128.779 74.1327 128.779 74.1327ZM100.712 80.5127C100.646 80.5147 100.581 80.5047 100.52 80.4833C100.476 80.4671 100.437 80.4382 100.41 80.4001C100.382 80.362 100.367 80.3166 100.365 80.2696C100.365 80.0265 100.785 79.8534 100.962 79.8534C101.028 79.8499 101.095 79.86 101.157 79.8828C101.201 79.8985 101.239 79.9269 101.266 79.9644C101.292 80.0019 101.307 80.0466 101.308 80.0928C101.32 80.3322 100.892 80.509 100.712 80.509V80.5127ZM112.673 72.9871C112.341 72.9871 112.304 72.7882 112.304 72.7293C112.304 72.4898 112.673 72.2835 112.897 72.2835C113.229 72.2835 113.266 72.4788 113.266 72.5414C113.266 72.7735 112.894 72.9834 112.673 72.9834V72.9871ZM116.516 81.6768C116.41 81.7593 116.282 81.808 116.147 81.8167C116.067 81.8214 115.986 81.8036 115.915 81.7652C115.874 81.7437 115.84 81.7114 115.816 81.6718C115.792 81.6322 115.779 81.5868 115.779 81.5404C115.779 81.2973 116.118 81.0616 116.372 81.0616C116.719 81.0616 116.741 81.2937 116.741 81.3379C116.731 81.4071 116.706 81.4733 116.667 81.5314C116.628 81.5895 116.576 81.6379 116.516 81.6731V81.6768ZM123.374 80.8774C123.005 80.8774 123.005 80.6453 123.005 80.5974C123.012 80.5292 123.034 80.4635 123.07 80.4049C123.106 80.3463 123.154 80.2963 123.211 80.2586C123.316 80.1737 123.445 80.1235 123.58 80.1149C123.948 80.1149 123.948 80.347 123.948 80.3949C123.963 80.6343 123.628 80.8737 123.374 80.8737V80.8774ZM125.923 92.665C125.812 92.7341 125.686 92.7746 125.555 92.7828C125.227 92.7828 125.186 92.5876 125.186 92.5287C125.186 92.2929 125.581 92.094 125.783 92.094C126.111 92.094 126.152 92.2856 126.152 92.3445C126.163 92.4661 126.082 92.5729 125.923 92.6687V92.665Z" fill="url(#paint1_linear_1365_3)"/>
<path d="M86.2668 72.7955C84.8995 71.9865 83.3398 71.5597 81.751 71.5597C80.1621 71.5597 78.6024 71.9865 77.2351 72.7955C77.2351 72.7108 77.2351 72.6261 77.2351 72.5414C77.2096 70.3711 76.3893 68.2854 74.9294 66.6789C73.4695 65.0724 71.4713 64.0564 69.3127 63.8232C67.1541 63.59 64.9848 64.1557 63.2153 65.4133C61.4457 66.671 60.1986 68.5333 59.7098 70.648C58.237 69.7996 56.5218 69.4702 54.8393 69.7127C53.1568 69.9552 51.6045 70.7554 50.4313 71.9852V88.4988C51.5153 89.1329 52.4237 90.0278 53.0736 91.1022C53.7236 92.1765 54.0947 93.3962 54.153 94.6504L65.2077 101.023C65.2077 100.938 65.2077 100.854 65.2077 100.765C65.208 100.077 65.4026 99.4026 65.7691 98.8199C66.1357 98.2372 66.6592 97.7697 67.2796 97.4711C67.9001 97.1725 68.5922 97.055 69.2764 97.1321C69.9607 97.2091 70.6093 97.4777 71.1477 97.9067C71.3588 97.1273 71.7246 96.3983 72.2233 95.7632C72.722 95.128 73.3435 94.5996 74.0507 94.2095C74.758 93.8195 75.5365 93.5756 76.3399 93.4925C77.1434 93.4094 77.9554 93.4888 78.7275 93.7258C79.2668 92.0012 80.4692 90.5613 82.0702 89.7227C83.6713 88.8841 85.54 88.7155 87.2654 89.2539L87.4533 71.2042C86.9993 71.6885 86.6013 72.2223 86.2668 72.7955ZM55.7412 78.6599C55.6639 78.6628 55.5869 78.6477 55.5164 78.6157C55.4757 78.5939 55.4415 78.5615 55.4175 78.522C55.3935 78.4824 55.3806 78.4372 55.3801 78.391C55.3801 78.1589 55.7228 77.9231 55.9697 77.9231C56.3161 77.9231 56.3382 78.1478 56.3382 78.192C56.3308 78.4241 55.9955 78.6599 55.7412 78.6599ZM64.5407 92.7828C64.2165 92.7828 64.1907 92.5913 64.1907 92.5324C64.1907 92.4734 64.2717 92.3113 64.4302 92.2156C64.5418 92.1479 64.6683 92.1086 64.7987 92.1014C65.1266 92.1014 65.1672 92.2929 65.1672 92.3518C65.1377 92.5876 64.7434 92.7828 64.5407 92.7828ZM65.5762 83.7432C65.522 83.7499 65.4671 83.7455 65.4147 83.7304C65.3623 83.7154 65.3135 83.6899 65.2712 83.6555C65.2288 83.6211 65.1939 83.5785 65.1684 83.5303C65.143 83.4821 65.1275 83.4292 65.1229 83.3749C65.131 83.2835 65.1633 83.1959 65.2166 83.1212C65.2698 83.0465 65.342 82.9873 65.4257 82.9498C65.5094 82.9123 65.6017 82.8977 65.6929 82.9077C65.7841 82.9177 65.871 82.9518 65.9447 83.0065C65.9856 83.0415 66.0183 83.085 66.0406 83.134C66.0629 83.1831 66.0742 83.2363 66.0736 83.2902C66.0708 83.3526 66.0557 83.4138 66.0291 83.4704C66.0026 83.527 65.9651 83.5778 65.9189 83.6199C65.8727 83.6619 65.8186 83.6945 65.7598 83.7157C65.701 83.7368 65.6386 83.7462 65.5762 83.7432ZM66.1178 69.2372C65.7678 69.2372 65.7494 69.0051 65.7494 68.9609C65.7572 68.8919 65.7801 68.8255 65.8164 68.7663C65.8527 68.7072 65.9015 68.6566 65.9594 68.6183C66.0654 68.5358 66.1938 68.4871 66.3279 68.4784C66.6964 68.4784 66.6964 68.7104 66.6964 68.7546C66.7148 69.0014 66.3758 69.2372 66.1252 69.2372H66.1178ZM72.1758 74.6079C72.0647 74.6123 71.9555 74.5785 71.8663 74.5121C71.8238 74.4807 71.7896 74.4395 71.7665 74.3921C71.7434 74.3446 71.7321 74.2923 71.7336 74.2395C71.7421 74.115 71.7996 73.999 71.8936 73.9168C71.9875 73.8347 72.1102 73.7931 72.2348 73.8012C72.3454 73.7954 72.4547 73.828 72.5443 73.8933C72.5845 73.9267 72.6171 73.9683 72.64 74.0153C72.6628 74.0623 72.6754 74.1136 72.6769 74.1659C72.6684 74.2893 72.612 74.4045 72.5198 74.4871C72.4276 74.5696 72.3068 74.613 72.1832 74.6079H72.1758ZM81.5206 81.4631C81.1927 81.4631 81.1522 81.2715 81.1522 81.2126C81.1522 80.9769 81.5465 80.7779 81.7491 80.7779C81.8186 80.7745 81.888 80.7871 81.9518 80.8148C81.9949 80.8317 82.0319 80.861 82.0582 80.8991C82.0844 80.9371 82.0987 80.9822 82.0992 81.0284C82.1213 81.2679 81.727 81.4631 81.528 81.4631H81.5206Z" fill="url(#paint2_linear_1365_3)"/>
<path d="M135.25 40.8549C134.687 40.8549 134.136 41.0219 133.667 41.3348C133.199 41.6477 132.834 42.0924 132.618 42.6127C132.403 43.133 132.346 43.7055 132.456 44.2579C132.566 44.8102 132.837 45.3176 133.236 45.7158C133.634 46.114 134.142 46.3852 134.694 46.4951C135.247 46.605 135.819 46.5486 136.34 46.3331C136.86 46.1175 137.305 45.7526 137.618 45.2843C137.931 44.8161 138.098 44.2656 138.098 43.7024C138.097 42.9475 137.797 42.2238 137.263 41.69C136.729 41.1562 136.005 40.8559 135.25 40.8549Z" fill="#110090"/>
<path d="M46.7538 92.1456C46.1904 92.1456 45.6397 92.3126 45.1713 92.6254C44.7029 92.9383 44.3378 93.383 44.1222 93.9033C43.9066 94.4236 43.8502 94.9962 43.9601 95.5485C44.07 96.1009 44.3413 96.6082 44.7396 97.0064C45.138 97.4047 45.6455 97.6758 46.1981 97.7857C46.7506 97.8956 47.3233 97.8392 47.8438 97.6237C48.3643 97.4082 48.8092 97.0432 49.1221 96.575C49.4351 96.1067 49.6022 95.5562 49.6022 94.993C49.6012 94.2381 49.3008 93.5144 48.7668 92.9806C48.2329 92.4469 47.5089 92.1465 46.7538 92.1456Z" fill="#110090"/>
<path d="M135.25 37.746C134.224 37.7458 133.216 38.0124 132.324 38.5195L104.109 22.2343C104.015 22.5779 103.826 22.888 103.564 23.1294L101.091 26.301L129.395 42.6378C129.139 44.0057 129.374 45.4199 130.057 46.6323C130.74 47.8447 131.828 48.7779 133.131 49.2683V93.4201L97.4799 113.993C97.0711 114.228 96.608 114.352 96.1365 114.353C95.6649 114.354 95.2013 114.232 94.7916 113.999C94.3819 113.765 94.0404 113.429 93.801 113.023C93.5615 112.616 93.4324 112.155 93.4265 111.683L92.2805 30.644L91.0092 31.086L89.7379 30.644L88.5919 111.683C88.586 112.155 88.4569 112.616 88.2175 113.023C87.978 113.429 87.6365 113.765 87.2268 113.999C86.8171 114.232 86.3535 114.354 85.882 114.353C85.4104 114.352 84.9473 114.228 84.5386 113.993L52.6791 95.6155C52.6975 95.4129 52.7085 95.203 52.7085 94.993C52.7081 93.787 52.3411 92.6096 51.656 91.6169C50.9709 90.6242 50.0002 89.8631 48.8726 89.4344V44.7927L80.9126 26.301L78.4401 23.1294C78.178 22.888 77.989 22.5779 77.8947 22.2343L45.0993 41.1607C44.9968 41.2218 44.8983 41.2895 44.8045 41.3633L43.8354 41.9195V89.8065C43.1333 90.1989 42.5181 90.7295 42.0267 91.3661C41.5354 92.0028 41.1782 92.7324 40.9767 93.5108C40.7752 94.2892 40.7336 95.1004 40.8543 95.8954C40.975 96.6904 41.2556 97.4527 41.6791 98.1363C42.1026 98.8199 42.6602 99.4106 43.3184 99.8729C43.9766 100.335 44.7216 100.659 45.5085 100.826C46.2955 100.992 47.108 100.998 47.897 100.842C48.6861 100.686 49.4354 100.371 50.0997 99.918L89.76 122.808H89.7785L89.878 122.86L91.0166 123.515L92.1552 122.86L92.2547 122.808H92.2731L136.919 97.0411L137.048 96.9564L138.179 96.3044V48.8926C139.326 48.2469 140.227 47.2397 140.741 46.0282C141.255 44.8167 141.354 43.4692 141.021 42.196C140.688 40.9228 139.942 39.7957 138.901 38.9906C137.86 38.1855 136.581 37.7479 135.265 37.746H135.25ZM46.7538 98.7834C46.0039 98.7834 45.2708 98.5611 44.6472 98.1446C44.0237 97.7281 43.5377 97.1362 43.2507 96.4435C42.9637 95.7509 42.8886 94.9888 43.0349 94.2535C43.1812 93.5183 43.5423 92.8429 44.0726 92.3128C44.6029 91.7827 45.2785 91.4217 46.014 91.2754C46.7496 91.1291 47.512 91.2042 48.2048 91.4911C48.8977 91.778 49.4899 92.2638 49.9065 92.8872C50.3231 93.5105 50.5455 94.2433 50.5455 94.993C50.5445 95.998 50.1448 96.9615 49.4339 97.6722C48.723 98.3828 47.7591 98.7825 46.7538 98.7834ZM135.25 47.4928C134.5 47.4928 133.767 47.2705 133.143 46.854C132.52 46.4375 132.034 45.8455 131.747 45.1529C131.46 44.4603 131.385 43.6982 131.531 42.9629C131.677 42.2276 132.038 41.5522 132.569 41.0221C133.099 40.492 133.775 40.131 134.51 39.9848C135.246 39.8385 136.008 39.9136 136.701 40.2005C137.394 40.4874 137.986 40.9732 138.403 41.5965C138.819 42.2199 139.042 42.9527 139.042 43.7024C139.04 44.7071 138.64 45.6701 137.929 46.3805C137.218 47.0909 136.255 47.4909 135.25 47.4928Z" fill="#110090"/>
<path d="M172.242 139.123C172.638 139.125 173.029 139.047 173.394 138.894C173.759 138.742 174.089 138.518 174.365 138.235C174.927 137.67 175.243 136.906 175.243 136.11C175.243 135.313 174.927 134.549 174.365 133.984C174.089 133.703 173.759 133.479 173.396 133.327C173.032 133.174 172.642 133.096 172.248 133.096C171.854 133.096 171.464 133.174 171.1 133.327C170.737 133.479 170.407 133.703 170.131 133.984C169.569 134.549 169.253 135.313 169.253 136.11C169.253 136.906 169.569 137.67 170.131 138.235C170.406 138.516 170.734 138.74 171.097 138.892C171.46 139.045 171.849 139.123 172.242 139.123Z" fill="#3C3541"/>
<path d="M93.2938 145.738H94.8452V136.898H103.121V135.321H94.8452V128.053H104.208V126.503H93.2938V145.738Z" fill="#3C3541"/>
<path d="M117.039 140.246C117.039 142.928 114.29 144.372 111.7 144.372C109.109 144.372 106.357 142.935 106.357 140.272V126.506H104.78V140.246C104.78 143.952 108.347 145.948 111.7 145.948C115.053 145.948 118.616 143.959 118.616 140.272V126.506H117.039V140.246Z" fill="#3C3541"/>
<path d="M119.689 128.053H125.949V145.819H127.501V128.053H133.761V126.477H119.689V128.053Z" fill="#3C3541"/>
<path d="M146.489 140.246C146.489 142.928 143.736 144.372 141.146 144.372C138.555 144.372 135.806 142.935 135.806 140.272V126.506H134.229V140.246C134.229 143.952 137.792 145.948 141.146 145.948C144.499 145.948 148.066 143.959 148.066 140.272V126.506H146.489V140.246Z" fill="#3C3541"/>
<path d="M156.224 138.228C157.015 138.268 157.805 138.144 158.546 137.864C159.286 137.584 159.96 137.153 160.526 136.6C161.091 136.046 161.536 135.381 161.831 134.646C162.126 133.912 162.266 133.125 162.242 132.334C162.242 129.416 160.174 126.466 156.228 126.466H149.385V139.163H150.936V128.039H156.224C159.29 128.039 160.687 130.271 160.687 132.345C160.687 134.419 159.29 136.651 156.224 136.651H152.127V137.878L160.816 145.727H163.144L154.813 138.228H156.224Z" fill="#3C3541"/>
<path d="M179.118 129.136C178.213 128.213 177.133 127.479 175.94 126.978C174.748 126.477 173.468 126.219 172.174 126.219C170.881 126.219 169.6 126.477 168.408 126.978C167.216 127.479 166.135 128.213 165.23 129.136C163.384 130.988 162.347 133.495 162.347 136.11C162.347 138.724 163.384 141.231 165.23 143.083C166.136 144.006 167.217 144.739 168.409 145.24C169.602 145.741 170.882 145.999 172.176 145.999C173.47 145.999 174.75 145.741 175.943 145.24C177.136 144.739 178.216 144.006 179.122 143.083C180.97 141.231 182.007 138.723 182.007 136.108C182.007 133.493 180.97 130.984 179.122 129.133L179.118 129.136ZM172.161 144.423C171.076 144.423 170.002 144.205 169.002 143.781C168.003 143.358 167.098 142.738 166.343 141.959C164.793 140.407 163.922 138.303 163.922 136.11C163.922 133.916 164.793 131.812 166.343 130.26C167.101 129.48 168.007 128.86 169.009 128.437C170.01 128.013 171.087 127.795 172.174 127.795C173.262 127.795 174.338 128.013 175.34 128.437C176.341 128.86 177.248 129.48 178.006 130.26C179.54 131.82 180.4 133.921 180.4 136.11C180.4 138.298 179.54 140.399 178.006 141.959C177.246 142.74 176.337 143.361 175.334 143.784C174.33 144.207 173.251 144.425 172.161 144.423Z" fill="#3C3541"/>
<path d="M1.55134 129.56L8.03304 139.196H8.98743L15.4691 129.56V145.738H17.0205V126.477H15.716L8.49734 137.115L1.30445 126.477H0V139.178H1.55134V129.56Z" fill="#3C3541"/>
<path d="M25.2857 145.963C28.6389 145.963 32.2022 143.974 32.2022 140.287V126.506H30.6287V140.246C30.6287 142.928 27.8761 144.372 25.2857 144.372C22.6952 144.372 19.9426 142.935 19.9426 140.272V126.506H18.3654V140.246C18.3654 143.952 21.9324 145.963 25.2857 145.963Z" fill="#3C3541"/>
<path d="M35.0985 129.748L46.1642 145.738H47.4613V126.477H45.9136V142.574L34.7853 126.499L33.5214 126.411V145.738H35.0985V129.748Z" fill="#3C3541"/>
<path d="M76.4576 146C77.7537 146.004 79.0374 145.748 80.233 145.247C81.4285 144.747 82.5116 144.012 83.4184 143.086C85.2642 141.234 86.3006 138.726 86.3006 136.111C86.3006 133.497 85.2642 130.989 83.4184 129.136C82.5129 128.213 81.4322 127.479 80.2395 126.978C79.0468 126.477 77.7661 126.219 76.4723 126.219C75.1786 126.219 73.8979 126.477 72.7052 126.978C71.5125 127.479 70.4318 128.213 69.5263 129.136C67.6816 130.989 66.646 133.496 66.646 136.11C66.646 138.723 67.6816 141.23 69.5263 143.083C70.4296 144.005 71.5078 144.738 72.6979 145.239C73.8881 145.74 75.1663 145.999 76.4576 146ZM76.4576 127.796C77.5476 127.795 78.6266 128.013 79.631 128.436C80.6353 128.86 81.5447 129.48 82.3055 130.26C83.8386 131.821 84.6974 133.922 84.6974 136.11C84.6974 138.297 83.8386 140.398 82.3055 141.959C81.5475 142.739 80.6408 143.359 79.6388 143.782C78.6369 144.206 77.5601 144.424 76.4723 144.424C75.3846 144.424 74.3078 144.206 73.3059 143.782C72.3039 143.359 71.3971 142.739 70.6392 141.959C69.0892 140.407 68.2188 138.303 68.2188 136.11C68.2188 133.916 69.0892 131.812 70.6392 130.26C71.3946 129.481 72.2988 128.861 73.2983 128.438C74.2978 128.014 75.3721 127.796 76.4576 127.796Z" fill="#3C3541"/>
<path d="M63.2842 129.527C61.5523 127.549 59.0908 126.506 56.1687 126.506H49.4843V128.053H56.1687C61.6186 128.053 64.1022 132.238 64.1022 136.124C64.1022 140.01 61.6186 144.191 56.1687 144.191H49.4843V145.742H56.1687C59.0908 145.742 61.5523 144.696 63.2842 142.718C64.8161 140.861 65.654 138.529 65.654 136.122C65.654 133.716 64.8161 131.384 63.2842 129.527Z" fill="#3C3541"/>
<path d="M51.0319 128.053H49.4806V139.178H51.0319V128.053Z" fill="#3C3541"/>
<defs>
<linearGradient id="paint0_linear_1365_3" x1="91.0018" y1="32.0769" x2="91.0018" y2="-1.02451e-05" gradientUnits="userSpaceOnUse">
<stop stop-color="#FBDC6D"/>
<stop offset="1" stop-color="#EEBB43"/>
</linearGradient>
<linearGradient id="paint1_linear_1365_3" x1="113.052" y1="60.146" x2="113.052" y2="119.688" gradientUnits="userSpaceOnUse">
<stop stop-color="#EEBB43"/>
<stop offset="1" stop-color="#FBDC6D"/>
</linearGradient>
<linearGradient id="paint2_linear_1365_3" x1="68.9368" y1="60.9454" x2="68.9368" y2="122.867" gradientUnits="userSpaceOnUse">
<stop stop-color="#EEBB43"/>
<stop offset="1" stop-color="#F6C745"/>
</linearGradient>
</defs>
</svg>
