<svg width="48" height="35" viewBox="0 0 48 35" fill="none" xmlns="http://www.w3.org/2000/svg">
<path d="M20.7977 34.4413C20.7977 34.292 20.7391 34.1487 20.6346 34.0428C20.5302 33.9369 20.3884 33.877 20.2402 33.8761L16.7739 33.8761L13.0387 24.0385C26.0972 22.8551 48 20.647 48 17.5033C48 14.3597 26.0972 12.1515 13.0387 10.9681L16.7739 1.13053L20.2402 1.13053C20.3889 1.13053 20.5316 1.07097 20.6367 0.964966C20.7419 0.858958 20.801 0.715187 20.801 0.56527C20.801 0.415353 20.7419 0.271571 20.6367 0.165564C20.5316 0.0595566 20.3889 0 20.2402 0L15.5147 0C15.4194 0.000534234 15.3259 0.0253699 15.2427 0.0721896C15.1596 0.119009 15.0895 0.186288 15.0392 0.267755L3.66961 9.19295L4.44681 10.264C1.70855 10.0656 0 9.96317 0 9.96317L3.73191 14.8026L3.07604 17.1331H15.5048V17.8669H3.07604L3.73191 20.1974L0 25.0368C0 25.0368 1.70855 24.9344 4.44681 24.736L3.66961 25.807L15.0392 34.7322C15.0895 34.8137 15.1596 34.881 15.2427 34.9278C15.3259 34.9746 15.4194 34.9995 15.5147 35L20.2402 35C20.3872 34.9991 20.5281 34.9401 20.6323 34.8356C20.7366 34.7311 20.796 34.5895 20.7977 34.4413ZM26.2316 17.5033C26.2316 16.0588 28.032 14.8852 30.2521 14.8852C32.4722 14.8852 34.2726 16.0588 34.2726 17.5033C34.2726 18.9479 32.4722 20.1214 30.2521 20.1214C28.032 20.1214 26.2316 18.9479 26.2316 17.5033Z" fill="url(#paint0_linear_105_21)"/>
<defs>
<linearGradient id="paint0_linear_105_21" x1="24.0016" y1="0" x2="24.0016" y2="35.0066" gradientUnits="userSpaceOnUse">
<stop stop-color="#FBDC6D"/>
<stop offset="1" stop-color="#EEBB43"/>
</linearGradient>
</defs>
</svg>
